{"title":"Capone.1975.x264.3_Audio.7_Sub.mkv.Zen_Bud","uid":5785052,"size":1331761758,"categoryP":"video","categoryS":"movies","magnet":"?xt=urn:btih:b056e8984e99098036610cefb98ef8be344a9c57&amp;dn=Capone.1975.x264.3_Audio.7_Sub.mkv.Zen_Bud&amp;tr=udp%3A%2F%2Ftracker.openbittorrent.com%3A80&amp;tr=udp%3A%2F%2Fopen.demonii.com%3A1337&amp;tr=udp%3A%2F%2Ftracker.coppersurfer.tk%3A6969&amp;tr=udp%3A%2F%2Fexodus.desync.com%3A6969","seeders":0,"leechers":0,"uploader":"Zen_Bud","files":-1,"time":1282578234,"description":"General\nComplete name                    : Capone.1975.x264.3_Audio.7_Sub.mkv.Zen_Bud\nFormat                           : Matroska\nFile size                        : 1.24 GiB\nDuration                         : 1h 37mn\nOverall bit rate                 : 1 828 Kbps\nWriting application              : HandBrake 0.9.4\n\nVideo\n\nFormat                           : AVC\nDuration                         : 1h 37mn\nBit rate                         : 1 456 Kbps\nWidth                            : 720 pixels\nHeight                           : 556 pixels\nDisplay aspect ratio             : 16:9\nStream size                      : 1 011 MiB (80%)\nWriting library                  : x264 core 79\n\n\nAudio #1\n\nCodec ID/Hint                    : MP3\nDuration                         : 1h 37mn\nBit rate                         : 112 Kbps\nChannel(s)                       : 2 channels\nSampling rate                    : 48.0 KHz\nStream size                      : 77.8 MiB (6%)\nWriting library                  : LAME3.98\nLanguage*************************: English\n\nAudio #2\n\nCodec ID/Hint                    : MP3\nDuration                         : 1h 37mn\nBit rate                         : 112 Kbps\nChannel(s)                       : 2 channels\nSampling rate                    : 48.0 KHz\nStream size                      : 77.8 MiB (6%)\nLanguage*************************: German\n\nAudio #3\n\nCodec ID/Hint                    : MP3\nDuration                         : 1h 37mn\nBit rate                         : 112 Kbps\nChannel(s)                       : 2 channels\nSampling rate                    : 48.0 KHz\nStream size                      : 77.8 MiB (6%)\nWriting library                  : LAME3.98\nLanguage*************************: Spanish\n\n\nText:**********English ,German ,Spanish ,Swedish ,Danish ,Finnish ,Norwegian\n\n","torrent":{"xt":"urn:btih:b056e8984e99098036610cefb98ef8be344a9c57","amp;dn":"Capone.1975.x264.3_Audio.7_Sub.mkv.Zen_Bud","amp;tr":["udp%3A%2F%2Ftracker.openbittorrent.com%3A80","udp%3A%2F%2Fopen.demonii.com%3A1337","udp%3A%2F%2Ftracker.coppersurfer.tk%3A6969","udp%3A%2F%2Fexodus.desync.com%3A6969"],"infoHash":"b056e8984e99098036610cefb98ef8be344a9c57","infoHashBuffer":{"type":"Buffer","data":[176,86,232,152,78,153,9,128,54,97,12,239,185,142,248,190,52,74,156,87]},"announce":[],"urlList":[]}}